<mxfile host="app.diagrams.net" modified="2024-02-13T11:54:51.404Z" agent="Mozilla/5.0 (Windows NT 10.0; Win64; x64) AppleWebKit/537.36 (KHTML, like Gecko) Chrome/120.0.0.0 Safari/537.36" version="23.1.3" etag="xhfxLaUZfTDV237kwhZw" type="github">
  <diagram name="Page-1" id="tvfktwnWRLU-PVrWZCxQ">
    <mxGraphModel>
      <root>
        <mxCell id="0" />
        <mxCell id="1" parent="0" />
      </root>
    </mxGraphModel>
  </diagram>
</mxfile>
